<?xml version="1.0" encoding="UTF-8"?>
<svg width="600px" height="437px" viewBox="0 0 600 437" version="1.1" xmlns="http://www.w3.org/2000/svg" xmlns:xlink="http://www.w3.org/1999/xlink">
    <!-- Generator: Sketch 52.6 (67491) - http://www.bohemiancoding.com/sketch -->
    <title>hero-image-career</title>
    <desc>Created with Sketch.</desc>
    <defs>
        <linearGradient x1="94.2919914%" y1="10.6331887%" x2="7.40432862%" y2="82.7449982%" id="linearGradient-1">
            <stop stop-color="#5C6AE5" offset="0%"></stop>
            <stop stop-color="#6558DE" offset="100%"></stop>
        </linearGradient>
        <linearGradient x1="0%" y1="17.5145625%" x2="100.874187%" y2="100%" id="linearGradient-2">
            <stop stop-color="#BC958A" offset="0%"></stop>
            <stop stop-color="#BC958A" stop-opacity="0" offset="100%"></stop>
        </linearGradient>
        <linearGradient x1="50%" y1="0%" x2="50%" y2="100%" id="linearGradient-3">
            <stop stop-color="#EED29F" offset="0%"></stop>
            <stop stop-color="#DEAD6D" offset="100%"></stop>
        </linearGradient>
        <linearGradient x1="50%" y1="100%" x2="50%" y2="3.061617e-15%" id="linearGradient-4">
            <stop stop-color="#AB9062" offset="0%"></stop>
            <stop stop-color="#DEAD6D" offset="100%"></stop>
        </linearGradient>
        <path d="M0.211883742,20.3427485 C0.211883742,18.3630098 0.211883742,11.7495501 0.211883742,0.502369503 L11.0576936,15.9119379 L11.8331331,27.7318388 C4.08563351,24.7855173 0.211883742,22.3224872 0.211883742,20.3427485 Z" id="path-5"></path>
        <linearGradient x1="100%" y1="87.0362896%" x2="0%" y2="18.2825071%" id="linearGradient-7">
            <stop stop-color="#9BDAE7" offset="0%"></stop>
            <stop stop-color="#65B6CC" offset="100%"></stop>
        </linearGradient>
        <linearGradient x1="53.3274114%" y1="19.2740436%" x2="53.3274114%" y2="69.4884132%" id="linearGradient-8">
            <stop stop-color="#B5E4F0" offset="0%"></stop>
            <stop stop-color="#85C5D7" offset="100%"></stop>
        </linearGradient>
        <linearGradient x1="50%" y1="0%" x2="50%" y2="100%" id="linearGradient-9">
            <stop stop-color="#B5E4F0" offset="0%"></stop>
            <stop stop-color="#A7DBE9" offset="100%"></stop>
        </linearGradient>
        <linearGradient x1="50%" y1="0%" x2="50%" y2="100%" id="linearGradient-10">
            <stop stop-color="#FCE7C2" offset="0%"></stop>
            <stop stop-color="#F8CB8F" offset="100%"></stop>
        </linearGradient>
        <linearGradient x1="0%" y1="50%" x2="100%" y2="100%" id="linearGradient-11">
            <stop stop-color="#62EED4" offset="0%"></stop>
            <stop stop-color="#31AF98" offset="100%"></stop>
        </linearGradient>
        <linearGradient x1="100%" y1="100%" x2="2.77555756e-14%" y2="50%" id="linearGradient-12">
            <stop stop-color="#E3BBFF" offset="0%"></stop>
            <stop stop-color="#D08EFF" offset="100%"></stop>
        </linearGradient>
        <linearGradient x1="0%" y1="50%" x2="100%" y2="100%" id="linearGradient-13">
            <stop stop-color="#BFEAFF" offset="0%"></stop>
            <stop stop-color="#9DDFFF" offset="100%"></stop>
        </linearGradient>
        <linearGradient x1="50%" y1="0%" x2="50%" y2="100%" id="linearGradient-14">
            <stop stop-color="#FFFFFF" offset="0%"></stop>
            <stop stop-color="#EFEFEF" offset="100%"></stop>
        </linearGradient>
        <path d="M39.9736833,61.4289157 C7.97518044,49.9267777 5.91390424,38.678583 33.7898547,27.6843316 C75.6037803,11.1929544 -4.43919051,4.90522995 1.00862352,1.27014929 C6.45643754,-2.36493136 95.8648955,10.6616627 54.4410365,27.6843316 C26.8251306,39.0327775 22.0026795,50.2809722 39.9736833,61.4289157 Z" id="path-15"></path>
        <filter x="-1.5%" y="-1.6%" width="103.1%" height="103.3%" filterUnits="objectBoundingBox" id="filter-16">
            <feOffset dx="0" dy="-2" in="SourceAlpha" result="shadowOffsetInner1"></feOffset>
            <feComposite in="shadowOffsetInner1" in2="SourceAlpha" operator="arithmetic" k2="-1" k3="1" result="shadowInnerInner1"></feComposite>
            <feColorMatrix values="0 0 0 0 0   0 0 0 0 0   0 0 0 0 0  0 0 0 0.05 0" type="matrix" in="shadowInnerInner1"></feColorMatrix>
        </filter>
        <linearGradient x1="50%" y1="0%" x2="58.6950255%" y2="100%" id="linearGradient-17">
            <stop stop-color="#303984" offset="0%"></stop>
            <stop stop-color="#2C3581" offset="8.8205805%"></stop>
            <stop stop-color="#061261" offset="27.9091373%"></stop>
            <stop stop-color="#061260" offset="50.1579995%"></stop>
            <stop stop-color="#28327E" offset="62.3032873%"></stop>
            <stop stop-color="#061261" offset="100%"></stop>
        </linearGradient>
        <linearGradient x1="0%" y1="50%" x2="100%" y2="100%" id="linearGradient-18">
            <stop stop-color="#81D4E2" offset="0%"></stop>
            <stop stop-color="#5BB9CB" offset="100%"></stop>
        </linearGradient>
        <linearGradient x1="114.498521%" y1="0%" x2="0%" y2="152.319747%" id="linearGradient-19">
            <stop stop-color="#479FB0" offset="0%"></stop>
            <stop stop-color="#479FB0" stop-opacity="0" offset="100%"></stop>
        </linearGradient>
        <linearGradient x1="53.1962514%" y1="11.3662077%" x2="39.1042645%" y2="100%" id="linearGradient-20">
            <stop stop-color="#4ADBC0" offset="0%"></stop>
            <stop stop-color="#31AF98" offset="100%"></stop>
        </linearGradient>
        <linearGradient x1="50%" y1="0%" x2="50%" y2="100%" id="linearGradient-21">
            <stop stop-color="#DFC7BE" offset="0%"></stop>
            <stop stop-color="#BC958A" offset="100%"></stop>
        </linearGradient>
        <linearGradient x1="76.637065%" y1="-30.0013282%" x2="17.0896346%" y2="93.7501549%" id="linearGradient-22">
            <stop stop-color="#F9F9F9" offset="0%"></stop>
            <stop stop-color="#F0F1F5" offset="100%"></stop>
        </linearGradient>
        <linearGradient x1="50%" y1="0%" x2="50%" y2="100%" id="linearGradient-23">
            <stop stop-color="#FFFFFF" offset="0%"></stop>
            <stop stop-color="#F0F1F5" offset="100%"></stop>
        </linearGradient>
        <linearGradient x1="0%" y1="0%" x2="100%" y2="93.9029049%" id="linearGradient-24">
            <stop stop-color="#FBFBFC" offset="0%"></stop>
            <stop stop-color="#BABDC9" offset="97.2297513%"></stop>
        </linearGradient>
        <filter x="0.0%" y="-0.0%" width="100.0%" height="100.0%" filterUnits="objectBoundingBox" id="filter-25">
            <feGaussianBlur stdDeviation="0" in="SourceGraphic"></feGaussianBlur>
        </filter>
    </defs>
    <g id="z" stroke="none" stroke-width="1" fill="none" fill-rule="evenodd">
        <g id="Career-page" transform="translate(-909.000000, -141.000000)">
            <g id="hero" transform="translate(0.000000, 60.000000)">
                <g id="hero-image-career" transform="translate(909.000000, 81.000000)">
                    <path d="M536.184827,336.048275 C600.171353,291.287033 628.883643,204.05659 560.902534,127.048191 C536.184827,99.048191 512.695012,60.2627342 411.776283,47.048191 C306.564139,33.2714577 181.366065,-12.7495276 76.3267676,65.2504724 C-28.7125296,143.250472 -9.95344086,265.248325 41.0041926,329.048191 C91.9618261,392.848057 189.13373,384.127677 284.670715,379.566837 C380.207699,375.005997 472.1983,380.809516 536.184827,336.048275 Z" id="Path-17" fill="url(#linearGradient-1)" opacity="0.699999988"></path>
                    <g id="girl-sitting" transform="translate(59.000000, 96.502820)">
                        <ellipse id="Oval-11" fill="#000000" opacity="0.200000003" cx="173.066221" cy="310.592457" rx="59.5127682" ry="7.72618053"></ellipse>
                        <ellipse id="Oval-11" fill="#000000" opacity="0.200000003" cx="65.6340815" cy="317.54602" rx="54.1025165" ry="6.95356248"></ellipse>
                        <g id="stolica" transform="translate(0.007359, 101.533433)">
                            <path d="M60.9303646,102.064826 L84.9592408,102.064826 C79.8101959,118.360891 77.2356735,135.800539 77.2356735,154.38377 C77.2356735,172.967002 78.6659637,191.550234 81.5265442,210.133465 L64.3630612,210.133465 C67.2236417,191.550234 68.653932,172.967002 68.653932,154.38377 C68.653932,135.800539 66.0794095,118.360891 60.9303646,102.064826 Z" id="Rectangle-3" fill="#C2B1C2"></path>
                            <path d="M60.9303646,102.064826 L84.9592408,102.064826 C84.1864901,104.702838 83.614374,106.704109 83.2428925,108.068639 C78.6731056,108.640431 75.240409,108.926327 72.9448027,108.926327 C70.677712,108.926327 67.2663631,108.640431 62.7107561,108.068639 C62.3409944,106.71158 61.7475306,104.710309 60.9303646,102.064826 Z" id="Rectangle-3" fill="#A08FA0"></path>
                            <path d="M25.7452245,96.0610126 C16.5913669,88.0559282 10.8702059,70.6162801 8.5817415,43.7420682 C6.8653932,31.7344417 4.0048127,17.725544 0,1.71537523 C4.0048127,-0.571791742 6.57933515,-0.285895871 7.72356735,2.57306284 C9.43991564,6.8615009 19.7380054,33.4498169 24.8870503,69.4726966 C27.1755147,79.1931562 34.613024,86.0546571 47.1995782,90.0571993 L25.7452245,96.0610126 Z" id="Path-10" fill="#D7CBD7"></path>
                            <path d="M30.0360952,89.1995117 C24.3149342,85.1969695 19.7380054,72.3316553 16.3053088,50.6035692 C11.1562639,18.0114399 1.99832616,0.694420508 2.85052978,0.448320198 C5.2544606,-0.245889616 6.87880645,0.462357931 7.72356735,2.57306284 C9.43991564,6.8615009 21.4543537,33.4498169 26.6033986,69.4726966 C27.7476308,79.1931562 34.613024,86.0546571 47.1995782,90.0571993 L30.0360952,89.1995117 Z" id="Path-10" fill="#EFE4EF"></path>
                            <path d="M24.0288762,89.1995117 L121.860733,89.1995117 L121.860726,92.1394545 C121.860724,95.4462199 119.503465,98.2831505 116.252623,98.888731 C101.816683,101.577919 87.3807429,102.922514 72.9448027,102.922514 C58.5088635,102.922514 44.0729244,101.57792 29.6369852,98.8887316 L29.6369849,98.8887329 C26.3861389,98.2831515 24.0288762,95.4462161 24.0288762,92.1394459 L24.0288762,89.1995117 Z" id="Rectangle-2" fill="#D7CBD7"></path>
                            <path d="M30.0360952,89.1995117 L121.86074,89.1995117 L121.86074,89.1995117 C121.860734,91.1746761 120.399763,92.8453027 118.442227,93.1085979 C103.808651,95.07688 88.9289003,96.0610126 73.8029769,96.0610126 C49.3450136,96.0610126 44.6250558,96.0610126 39.4760109,94.3456374 C36.0433143,93.2020539 32.8966757,91.4866787 30.0360952,89.1995117 Z" id="Rectangle-2" fill="#EFE4EF"></path>
                            <path d="M45.4832299,210.991153 C54.6370875,209.275778 63.7909451,208.41809 72.9448027,208.41809 C82.0986603,208.41809 91.2525179,209.275778 100.406375,210.991153 L100.406375,213.564216 L45.4832299,213.564216 L45.4832299,210.991153 Z" id="Rectangle-4" fill="#D7CBD7"></path>
                        </g>
                        <g id="noge" transform="translate(29.185280, 146.990876)">
                            <g id="leva" transform="translate(119.286207, 26.588316)">
                                <g id="Group-3" transform="translate(56.500306, 120.009351) rotate(-30.000000) translate(-56.500306, -120.009351) translate(43.500306, 98.009351)">
                                    <path d="M3.23852579,1.49525516 L2.57452245,21.4421903 L12.9763643,34.8230704 C16.4110821,36.3672463 18.4907113,36.9583019 19.2152517,36.596237 C19.9397921,36.2341722 20.1140434,34.8994696 19.7380054,32.5921293 L11.1562639,18.0114399 L14.1319072,0.546533152 L3.23852579,1.49525516 Z" id="Path-13" fill="#FDC29D"></path>
                                    <path d="M1.09166794,16.320345 C0.363889314,23.165659 0,26.8742119 0,27.4460036 C0,28.3036912 11.1562639,38.5959426 12.0144381,39.4536302 C12.2444985,39.6835602 13.9608468,40.5412478 17.163483,42.026693 L23.1030743,43.8842459 C24.9808624,41.9826711 25.6336984,40.460092 25.0615823,39.3165085 C24.4894662,38.1729251 22.4288825,35.3596736 18.8798313,30.8767541 C18.3077152,30.0677977 18.0216571,29.7819018 18.0216571,30.0190664 C18.0216571,30.3748134 18.5673279,32.3001652 18.5673279,32.7298193 L16.3474695,35.2604467 L3.4326966,22.2998779 L2.80801624,15.4626574 L1.09166794,16.320345 Z" id="Path-14" fill="#2C2E4D"></path>
                                    <polygon id="Path-15" fill="#2C2E4D" points="2.73000801 16.375278 11.5237899 15.379344 11.9577374 13.1810578 2.73000801 15.5175904"></polygon>
                                </g>
                                <path d="M0,0.857687613 C11.997853,0.0695539171 19.7131279,5.96519623 23.1458245,18.5446145 C26.5785211,31.1240329 35.1685551,57.8205198 48.9159265,98.6340755 L34.326966,103.780201 C19.4519474,81.4803232 8.0096254,57.1791742 0,30.8767541 L0,0.857687613 Z" id="Path-12" fill="#BC958A"></path>
                                <path d="M0,8.33156205 C6.9915143,32.6560839 12.9831119,51.7145006 17.9747927,65.5068122 C22.9664735,79.2991238 28.9580711,92.0569201 35.9495854,103.780201 L34.326966,103.780201 C19.4519474,81.4803232 8.0096254,57.1791742 0,30.8767541 L0,8.33156205 Z" id="Path-12" fill="#957A72"></path>
                                <path d="M32.3054441,100.231958 L52.9016237,100.231958 C52.3295076,103.090917 52.0434495,105.092188 52.0434495,106.235771 L33.1636183,107.093459 L32.3054441,100.231958 Z" id="Path-7" fill="#A68379" transform="translate(42.603534, 103.662708) rotate(-20.000000) translate(-42.603534, -103.662708) "></path>
                            </g>
                            <g id="desna">
                                <path d="M103.839072,127.795454 L105.55542,144.091519 L114.995336,159.529896 L121.860729,162.960646 C119.000149,154.38377 116.425626,148.379957 114.137162,144.949207 L114.995336,128.653142 L103.839072,127.795454 Z" id="Path-13" fill="#FDC29D"></path>
                                <path d="M104.697246,141.518456 C102.980898,147.236374 102.122724,150.381228 102.122724,150.95302 C102.122724,151.810707 110.704465,162.960646 111.562639,163.818334 C112.085745,164.341143 116.674339,166.059005 125.328422,168.971922 C125.868969,169.153868 127.001536,169.15138 128.726122,168.96446 C128.726122,168.392668 128.440064,167.53498 127.867948,166.391397 C127.295832,165.247813 124.72131,162.102959 120.144381,156.956833 C119.572265,156.147877 119.286207,155.861981 119.286207,156.099146 C119.286207,156.454892 120.144381,159.957929 120.144381,160.387584 L114.995336,159.529896 L105.55542,144.091519 L105.55542,140.660768 L104.697246,141.518456 Z" id="Path-14" fill="#2C2E4D"></path>
                                <polygon id="Path-15" fill="#2C2E4D" points="105.55542 141.518456 114.40086 140.264683 114.507192 138.134864 105.55542 140.660768"></polygon>
                                <path d="M5.1490449,3.43075045 C-4.0048127,26.8742119 -0.5721161,40.5972137 15.4471347,44.5997559 C31.4663855,48.6022981 58.6419002,48.0305063 96.9736789,42.8843806 C93.5409823,79.4790521 94.6852145,106.353264 100.406375,123.507016 L116.711684,123.507016 C119.000149,73.7611347 120.430439,46.8869228 121.002555,42.8843806 C121.860729,36.8805673 125.449864,15.581325 110.860903,14.7236374 C101.13493,14.1518456 80.486604,10.9593417 48.9159265,5.14612568 L48.9159265,0 L5.1490449,3.43075045 Z" id="Path-6" fill="#D5B6A5"></path>
                                <path d="M0.297536295,22.0330002 C-0.777448866,34.2854085 4.27241727,41.8076604 15.4471347,44.5997559 C31.4663855,48.6022981 58.6419002,48.0305063 96.9736789,42.8843806 C93.5409823,79.4790521 94.6852145,106.353264 100.406375,123.507016 C99.3563148,107.645278 98.7697238,96.3149333 98.6466026,89.5159811 C98.1574906,62.5064362 104.004478,43.1203371 104.419782,40.2148619 C66.8450955,43.1381246 41.1923592,44.0279641 27.4615728,42.8843806 C13.7307864,41.7407972 4.67610756,34.790337 0.297536295,22.0330002 Z" id="Path-6" fill="#B09087"></path>
                                <path d="M98.6900272,123.507016 L119.286207,123.507016 C118.714091,126.365975 118.428033,128.367246 118.428033,129.51083 L99.5482013,130.368517 L98.6900272,123.507016 Z" id="Path-7" fill="#BC958A"></path>
                                <path d="M24.8870503,4.28843806 C19.1658893,21.2433062 28.0336889,28.9500645 51.490449,27.4087128 C74.9472091,25.8673612 92.3967501,27.0233749 103.839072,30.8767541" id="Path-11" stroke="url(#linearGradient-2)" stroke-width="1.7163483" opacity="0.600000024"></path>
                            </g>
                        </g>
                        <g id="glava" transform="translate(64.370420, 3.904042)">
                            <path d="M27.7258547,5.52604953 C27.2972493,5.32380453 29.33959,1.33893175 29.541907,0.910478862 C29.744224,0.482025978 29.1133016,0.343392791 29.541907,0.545637786 C35.4716566,3.34369436 39.7904755,9.02288595 40.2201981,17.5946206 C40.1310189,21.3955325 41.8740829,24.275784 45.5391517,26.3380895 C49.757603,28.7117789 52.1299765,33.4861415 52.705526,40.5993439 C52.8570967,44.9792769 52.673449,48.904097 52.1528906,52.3750829 C51.2075575,58.6783858 52.6478105,68.598716 56.6059151,73.3060821 C56.9108735,73.6687686 57.3401814,74.2686843 56.9773658,74.5735342 C56.6145503,74.8783841 56.0732125,74.8314983 55.7682541,74.4688118 C51.4533546,69.3371101 49.4432378,58.8703524 50.4555116,52.1207009 C50.9595296,48.7600038 51.1383244,44.9388977 50.9924932,40.6982747 C50.461115,34.1414777 48.3734117,30.1571482 44.7236138,28.1034355 C40.5204334,25.7383389 37.9323648,21.9845619 38.0377003,17.5946206 C37.6383632,9.67210386 33.0269556,8.02746722 27.7258547,5.52604953 Z" id="Path-19" fill="url(#linearGradient-3)" fill-rule="nonzero"></path>
                            <path d="M32.4258899,3.81181298 C35.5152735,6.47742635 36.9694465,11.1047179 36.7884088,17.6936878 C37.3158646,23.0811511 39.1047126,26.6079175 42.154953,28.2739869 C49.1501024,34.7605084 48.587907,41.1824801 48.587907,45.6554879 C48.587907,50.1284956 45.5325291,65.6593244 53.5317037,77.6538511 C49.2714466,83.6775211 41.1171667,86.5829957 29.0688641,86.3702747 L13.0631754,62.183171 L13.0631754,41.1824801 L32.4258899,3.81181298 Z" id="Path-18" fill="url(#linearGradient-4)"></path>
                            <polygon id="Path-5" fill="#EFEFEF" points="1.7163483 53.029635 0 60.7488235 18.8798313 69.3256997 18.0216571 59.8911359"></polygon>
                            <g id="vrat" transform="translate(2.574522, 34.160508)">
                                <mask id="mask-6" fill="white">
                                    <use xlink:href="#path-5"></use>
                                </mask>
                                <use id="Path-16" fill="#FDC29D" xlink:href="#path-5"></use>
                                <path d="M15.0853094,21.3351533 C21.0472732,21.3351533 1.35377672,-10.9880515 1.35377672,-0.0932323951 C1.35377672,10.8015867 9.12334563,21.3351533 15.0853094,21.3351533 Z" id="Oval" fill="#C89575" mask="url(#mask-6)"></path>
                            </g>
                            <g id="face" transform="translate(2.574522, 10.145254)">
                                <path d="M17.5925701,42.8843806 C23.5545338,42.8843806 30.8942694,33.1946971 30.8942694,22.2998779 C30.8942694,4.14682112 24.1704604,1.13911636 15.8762218,1.13911636 C7.5819831,1.13911636 0.85817415,11.4050588 0.85817415,22.2998779 C0.85817415,33.1946971 11.6306063,42.8843806 17.5925701,42.8843806 Z" id="Oval" fill="#B78466"></path>
                                <path d="M16.7343959,42.026693 C22.6963597,42.026693 30.0360952,32.3370095 30.0360952,21.4421903 C30.0360952,3.28913351 23.3122863,0.281428748 15.0180476,0.281428748 C6.72380895,0.281428748 0,10.5473712 0,21.4421903 C0,32.3370095 10.7724321,42.026693 16.7343959,42.026693 Z" id="Oval" fill="#FDC29D"></path>
                                <path d="M26.2727732,23.3871077 C24.6351801,26.499271 25.2065951,28.2115549 27.987018,28.5239593 C25.4841873,28.4408972 24.232772,27.9555314 24.232772,27.0678616 C24.232772,26.1801919 24.9127724,24.9532739 26.2727732,23.3871077 Z" id="Path-54" fill="#AA704D" transform="translate(26.109895, 25.955533) scale(-1, 1) translate(-26.109895, -25.955533) "></path>
                                <path d="M20.8547046,20.5845027 C21.5656393,20.5845027 22.1419658,20.008503 22.1419658,19.2979713 C22.1419658,18.5874396 21.5656393,18.0114399 20.8547046,18.0114399 C20.1437698,18.0114399 18.9404634,17.8404149 18.9404634,18.5509466 C18.9404634,19.2614782 20.1437698,20.5845027 20.8547046,20.5845027 Z" id="Oval-7" fill="#3B6350"></path>
                                <path d="M29.436446,20.5845027 C30.1473808,20.5845027 30.1488526,19.2470024 30.1488526,18.5364708 C30.1488526,17.8259391 30.1473808,18.0114399 29.436446,18.0114399 C28.7255113,18.0114399 28.1491848,18.5874396 28.1491848,19.2979713 C28.1491848,20.008503 28.7255113,20.5845027 29.436446,20.5845027 Z" id="Oval-7-Copy" fill="#3B6350"></path>
                                <path d="M18.691616,32.030654 C21.9436746,35.2188398 24.2548112,35.8666789 25.6250256,33.9741712 C26.9952401,32.0816635 24.6841035,31.4338244 18.691616,32.030654 Z" id="Path-55" stroke="#BD5554" stroke-width="1.7163483" fill="#FFFFFF" stroke-linecap="round" stroke-linejoin="round"></path>
                                <path d="M21.8059993,16.2529361 C19.5534784,14.5553938 17.477296,14.3944738 15.5774522,15.7701761" id="Path-61" stroke="#A5865B" stroke-width="0.85817415" stroke-linecap="round" transform="translate(18.691726, 15.549693) rotate(-30.000000) translate(-18.691726, -15.549693) "></path>
                                <path d="M29.813791,15.5621804 C29.3856956,15.2068495 29.0325756,15.0912837 28.7544311,15.215483" id="Path-61" stroke="#A5865B" stroke-width="0.85817415" stroke-linecap="round" transform="translate(29.284111, 15.667231) scale(-1, 1) rotate(-30.000000) translate(-29.284111, -15.667231) "></path>
                            </g>
                        </g>
                        <g id="torzo" transform="translate(34.334325, 56.933677)">
                            <g id="L-ruka" transform="translate(40.334185, 12.007627)">
                                <g id="Group" transform="translate(97.353464, 16.501836) rotate(-11.000000) translate(-97.353464, -16.501836) translate(77.353464, 9.501836)">
                                    <path d="M32.2513995,5.2454122 C36.2562122,8.10437091 38.2586185,9.53385027 38.2586185,9.53385027 C38.2586185,9.53385027 37.4004444,12.1069131 32.2513995,8.67616265 C35.11198,11.5122497 34.8259219,12.0840414 31.3932253,10.3915379 L27.9605287,7.81847504 C27.9605287,8.96205852 27.3884126,9.2479544 26.2441804,8.67616265 C25.0999482,8.10437091 22.5254258,6.67489156 18.5206131,4.38772459 L29.676877,2.67234936 L32.2513995,5.2454122 Z" id="Path-9" fill="#D6A07F"></path>
                                    <path d="M0.498955935,2.67234936 C9.08069743,0.956974139 15.6600326,0.0992865261 20.2369614,0.0992865261 C24.8138902,0.0992865261 28.5326448,0.0992865261 31.3932253,0.0992865261 C37.1143863,4.10182872 39.9749668,6.38899569 39.9749668,6.96078743 C39.9749668,7.81847504 38.2586185,8.06352864 28.8187029,3.77509058 C22.5254258,5.16372767 18.8066711,5.65383488 17.6624389,5.2454122 C15.9460906,4.63277819 27.1023546,11.2492255 27.1023546,12.1069131 C27.1023546,12.9646007 27.1023546,15.29261 16.8042648,9.53385027 C12.7994521,10.105642 10.2249296,9.81974614 9.08069743,8.67616265 L0.498955935,10.3915379 L0.498955935,2.67234936 Z" id="Path-8" fill="#FDC29D"></path>
                                </g>
                                <path d="M7.75595818,1.90156047 C8.46544347,2.50892966 15.8921558,16.1698697 30.0360952,42.8843806 L77.5948702,14.5051563 C79.3112185,24.4683981 79.5972766,30.5936025 78.4530444,32.8807695 C71.4833349,35.3270175 64.3527576,38.4910936 57.0613122,42.3729976 C50.2015616,46.025071 39.5434451,50.6939288 25.0869628,56.3795709 L25.0869589,56.3795609 C23.3797891,57.0509798 21.4346192,56.562857 20.2467285,55.1649485 C16.1565376,50.3516165 13.1263827,45.1145104 11.1562639,39.4536302 C9.05796894,33.4244522 0.220189899,17.9283462 0.526805547,0.842851044 C0.554594257,-0.705614846 6.69173023,0.990506696 7.75595818,1.90156047 Z" id="Path-4" fill="url(#linearGradient-7)"></path>
                            </g>
                            <path d="M28.3197469,6.8615009 C20.8822376,12.0076266 17.163483,22.0139821 17.163483,36.8805673 C17.163483,51.7471526 11.442322,70.6162801 5.40012479e-13,93.4879498 C1.12056611,95.1902276 7.69990126,95.7620194 19.7380054,95.203325 C31.7761096,94.6446306 39.9012849,94.6446306 44.1135312,95.203325 C46.3120391,94.8218709 47.6267795,93.9641833 48.0577524,92.6302622 C51.6459798,81.5241971 52.4592676,68.5513569 53.2077342,64.708949 C53.7792257,61.7750795 54.0649714,59.3604532 54.0649714,57.4650701 C59.7861324,51.1753609 60.3582485,43.4561724 55.7813197,34.3075045 C51.2043909,25.1588366 48.1810392,17.8585982 46.7112645,12.4067891 L28.3197469,6.8615009 Z" id="Path-2" fill="url(#linearGradient-8)"></path>
                            <g id="D-ruka" transform="translate(28.319747, 25.730628)">
                                <path d="M0.948990587,5.10075299 C5.41411646,36.0424057 7.84116924,52.1780831 8.23014891,53.5077852 C8.81361841,55.5023383 8.8832588,62.4426779 21.8187829,59.0590624 L22.6782738,54.462912 L0.948990587,5.10075299 Z" id="Path-20" fill="#7ABCCE"></path>
                                <g id="saka" transform="translate(69.512106, 31.734442)">
                                    <path d="M21.803244,4.79094478 C22.3806483,5.30041471 27.1316184,7.34996613 27.8353796,7.67187716 C28.5391408,7.99378819 28.1303616,9.32233798 26.9514781,9.30622748 C26.1655558,9.29548714 23.4973689,8.90911976 18.9469175,8.14712533 C15.4975549,7.88452406 13.7589033,7.15158548 13.7309625,5.9483096 C13.6890515,4.14339577 21.2258397,4.28147484 21.803244,4.79094478 Z" id="Path-21" fill="#D6A07F"></path>
                                    <path d="M36.3621893,0.802183923 C36.9962287,0.802183923 41.7205789,2.20384045 42.4243401,2.52575148 C43.1281014,2.84766251 42.7193221,4.17621231 41.5404387,4.1601018 C40.7545164,4.14936146 38.0863295,3.76299408 33.535878,3.00099965 C27.0479538,2.73839839 23.7900213,2.00545981 23.7620806,0.802183923 C23.7201695,-1.0027299 35.7281499,0.802183923 36.3621893,0.802183923 Z" id="Path-21-Copy" fill="#FDC29D"></path>
                                    <path d="M0,2.57306284 C8.5817415,0.857687613 15.1610766,4.98220207e-14 19.7380054,4.97379915e-14 C24.3149342,4.97379915e-14 27.5590064,0.136024316 29.470222,0.408072947 C35.1046118,3.69677894 37.9218068,5.62702781 37.9218068,6.19881956 C37.9218068,7.05650717 37.7596626,7.96424212 28.3197469,3.67580405 C21.6274344,6.63418854 17.7091621,7.90916945 16.5649299,7.50074678 C15.4206977,7.0923241 12.7596349,7.45103389 8.5817415,8.57687613 L0,10.2922514 L0,2.57306284 Z" id="Path-8" fill="#FDC29D"></path>
                                </g>
                                <path d="M0,0 C6.2932771,34.3075045 10.5841478,52.8907361 12.8726122,55.7496948 C16.3053088,60.0381329 48.0577524,51.4612568 52.3486231,51.4612568 C56.6394939,51.4612568 72.0866286,49.7458815 73.8029769,49.7458815 C74.9472091,49.7458815 75.2332671,44.0279641 74.661151,32.5921293 C43.1947655,38.8818384 26.8894567,42.026693 25.7452245,42.026693 C24.6009923,42.026693 22.3125279,28.875483 18.8798313,2.57306284 L0,0 Z" id="Path-3" fill="url(#linearGradient-9)"></path>
                                <ellipse id="Oval-2" fill="#FFFFFF" cx="69.5121061" cy="45.4574435" rx="1.7163483" ry="1.71537523"></ellipse>
                            </g>
                            <polygon id="Path-5" fill="#FFFFFF" points="30.0360952 0 28.3197469 7.71918851 47.1995782 16.2960646 46.3414041 6.8615009"></polygon>
                        </g>
                        <g id="kosa" transform="translate(36.050673, 0.326294)">
                            <path d="M53.5520082,3.46914386 C55.6610185,3.46914386 57.179382,3.67745211 58.1070988,4.09406862 C59.4986741,4.71899338 67.5271194,12.8277356 58.1070988,20.9214232 C51.8270851,26.3172149 45.4159777,30.0908616 38.8737766,32.2423634 L32.8052896,38.4909811 C35.078061,50.2212969 34.7762573,57.9761578 31.8998785,61.7555636 C29.0234997,65.5349695 27.7910746,70.7519893 28.2026033,77.4066231 C29.9461979,86.3984895 25.8309113,90.2122099 15.8567437,88.8477844 C5.88257604,87.4833589 1.4237087,81.2800942 2.48014165,70.2379901 C3.31808506,64.6785441 5.14451357,60.2015679 7.95942719,56.8070616 C12.1817976,51.7153021 13.7534817,50.8492782 14.3239555,48.0949912 C14.8944293,45.3407042 12.4007673,34.9952106 18.1523245,29.3592167 C23.9038816,23.7232227 25.332227,21.6722651 28.2026033,13.4936309 C31.0729796,5.31499668 42.3340747,-1.85507611 52.8928819,2.68021089 L53.5520082,3.46914386 Z" id="Path-17" fill="#DEAD6D"></path>
                            <path d="M56.3907505,3.23638101 C58.8871752,4.25234419 65.8107711,11.970048 56.3907505,20.0637356 C50.1107368,25.4595273 43.6996294,29.233174 37.1574283,31.3846758 L31.0889413,37.6332934 C33.3617127,49.3636093 33.059909,57.1184702 30.1835302,60.897876 C27.3071514,64.6772818 26.0747263,69.8943017 26.486255,76.5489355 C28.2298496,85.5408019 24.114563,89.3545223 14.1403954,87.9900968 C4.16622775,86.6256713 -0.292639599,80.4224065 0.763793351,69.3803025 C1.60173676,63.8208565 3.42816527,59.3438803 6.24307889,55.949374 C10.4654493,50.8576144 12.0371334,49.9915906 12.6076072,47.2373036 C13.178081,44.4830166 10.684419,34.137523 16.4359762,28.5015291 C22.1875333,22.8655351 23.6158787,20.8145775 26.486255,12.6359433 C29.3566313,4.45730907 40.6177264,-2.71276372 51.1765336,1.82252328 C52.9883951,2.08778631 54.7264674,2.55907222 56.3907505,3.23638101 Z" id="Path-17" fill="url(#linearGradient-10)"></path>
                        </g>
                    </g>
                    <g id="plant" transform="translate(317.857355, 252.571667)">
                        <ellipse id="Oval-11" fill="#000000" opacity="0.200000003" cx="34.7801892" cy="152.205757" rx="34.7801892" ry="6.95356248"></ellipse>
                        <path d="M69.2986198,95.5430225 L61.9595819,142.90449 C61.1393249,148.232294 56.3220363,152.181027 50.6441663,152.181027 L21.1827778,152.181027 C15.3898357,152.181027 10.5105853,148.064342 9.82605425,142.598445 L9.27528217,138.137459 L3.97115037,95.3853344 C3.56593948,92.1056094 6.26472266,89.2299018 9.74245492,89.2299018 L63.5469857,89.2299018 C67.0974986,89.2299018 69.8179192,92.213845 69.2986198,95.5430225" id="Fill-66" fill="#A46DCA"></path>
                        <path d="M15.5078583,33.8110683 C24.8621319,33.7981841 30.2813358,50.5387016 28.9644004,58.801427 C27.6484485,67.0641524 30.9068555,85.0752485 30.9068555,85.0752485 C30.9068555,85.0752485 16.6025178,89.0178083 17.1523064,61.1027402 C17.2880324,54.1799698 8.21307888,33.8219703 15.5078583,33.8110683" id="Fill-67" fill="#2A9B85"></path>
                        <path d="M49.0911857,46.9291483 C49.0911857,46.9291483 56.5993894,32.0677393 60.7518174,33.3759794 C64.9042455,34.6832283 68.278708,50.8974765 65.6831945,56.3901027 C63.0876811,61.8817377 56.37613,87.772007 49.0911857,86.988054 C41.807225,86.20311 28.0516924,78.587567 30.9068555,72.9809654 C33.7610351,67.3733727 49.0911857,46.9291483 49.0911857,46.9291483" id="Fill-68" fill="#31AF98"></path>
                        <path d="M32.4637701,97.3618032 C31.3228851,91.8671949 24.4126626,78.6301839 23.8127144,72.9809654 C21.2791629,70.5230598 11.4498484,57.952062 4.22883302,58.6557366 C-3.79670296,59.4386985 11.434112,82.2496481 21.1650744,92.6015933 C21.3165367,89.8067168 33.0450314,100.161635 32.4637701,97.3618032" id="Fill-69" fill="#31AF98"></path>
                        <path d="M56.8934623,92.4628405 C54.5782525,93.6759359 51.3188621,94.3974501 47.7683492,94.8057796 C47.0936534,94.8890312 46.4189576,94.962372 45.7236079,95.0148998 C39.0582822,95.5590087 31.8126789,95.1615812 28.0025163,94.8583074 C26.2793865,94.7215368 24.66051,93.9583968 23.4458609,92.7135866 C23.0819579,92.336972 22.6669118,91.9078296 22.2105578,91.4370614 C20.964436,90.1397233 19.895348,83.0682893 19.5629178,81.321987 C18.7328256,76.7917102 17.227054,33.4106675 36.723402,5.07240356 C38.8301052,2.00695921 41.1040071,0.688808221 43.1487484,0.594654579 C43.5746133,0.573841669 43.9798241,0.60555658 44.3840515,0.688808221 C47.3631383,1.27454298 49.6685129,4.4648648 49.9694705,8.36678993 C51.2667354,25.5651915 51.6926003,52.3028435 43.0553139,61.7182077 C29.9233339,76.0176681 39.1517168,81.7402274 43.4083981,77.4507857 C46.802531,74.0404417 54.6825058,56.361361 60.4439752,57.2087438 C60.7960759,57.2612716 61.1491601,57.3871402 61.4815904,57.5853584 C62.5506784,58.21371 63.5263317,59.6359256 64.3465887,62.0730183 C69.672358,77.8065873 65.7687609,87.8175972 56.8934623,92.4628405" id="Fill-70" fill="url(#linearGradient-11)"></path>
                        <path d="M29.5014032,92.2319163 C29.5436946,92.5143773 29.3460068,92.7760253 29.0657031,92.8176511 L28.9830873,92.8285531 C28.7332728,92.8285531 28.5159146,92.6402458 28.4736231,92.3785978 C28.3801886,91.7512372 19.8579742,32.1450444 43.1526825,0.594654579 C43.5785473,0.573841669 43.9837582,0.60555658 44.3879856,0.688808221 C20.8542816,31.726804 29.4079686,91.6045558 29.5014032,92.2319163" id="Fill-71" fill="#2FA48E"></path>
                        <path d="M61.4815904,57.5853584 C60.9318019,64.6994093 58.429723,85.9870522 47.7683492,94.8057796 C45.6813165,96.542171 43.2834909,97.7869812 40.5227458,98.3628051 L40.3152228,97.3370259 C42.3078375,96.9296875 44.1037479,96.1239306 45.7236079,95.0148998 C57.2357278,87.1793346 59.9040218,64.1027726 60.4439752,57.2087438 C60.7960759,57.2612716 61.1491601,57.3871402 61.4815904,57.5853584" id="Fill-72" fill="#2FA48E"></path>
                        <path d="M30.3275613,33.8170148 C30.2026541,33.8170148 30.0777468,33.7724157 29.9784111,33.6802443 C29.7659705,33.4859905 29.7512177,33.1549661 29.9449714,32.9418815 L43.153666,18.3341918 C43.3474198,18.1211072 43.675916,18.1042587 43.8873731,18.3004947 C44.0988303,18.4947485 44.1135831,18.8257729 43.9208129,19.0388574 L30.7111347,33.6465472 C30.6088485,33.7605226 30.4691884,33.8170148 30.3275613,33.8170148" id="Fill-73" fill="#2FA48E"></path>
                        <path d="M28.194303,54.7805709 C28.0703793,54.7805709 27.9454721,54.7359718 27.8461364,54.6447915 C27.6336957,54.4525198 27.6179594,54.1214954 27.8107296,53.9064287 L40.0388532,40.3037052 C40.232607,40.0906206 40.5611032,40.0747632 40.7715768,40.2680259 C40.9830339,40.4602976 40.9997538,40.791322 40.8069836,41.0063887 L28.5788599,54.6091122 C28.4765737,54.7230877 28.3359301,54.7805709 28.194303,54.7805709" id="Fill-74" fill="#2FA48E"></path>
                        <path d="M27.4596124,73.7450966 C27.2845456,73.7450966 27.1124293,73.6558984 27.0150607,73.4923684 C25.388316,70.764886 21.1237665,63.6191202 20.9162434,63.3049443 C20.7569129,63.0651003 20.8218254,62.7400225 21.0598376,62.5794657 C21.2958828,62.4199001 21.6184778,62.4833299 21.7797754,62.7251561 C22.0433591,63.1235747 27.6651684,72.551823 27.9051477,72.9532149 C28.0526759,73.2009876 27.9730107,73.5221011 27.7271303,73.6707647 C27.6435309,73.7213104 27.5510799,73.7450966 27.4596124,73.7450966" id="Fill-75" fill="#2FA48E"></path>
                        <path d="M54.9480566,84.2030884 C54.7385666,84.2030884 54.5408787,84.0742466 54.462197,83.8651264 L50.8369365,74.1841499 C50.7356338,73.913582 50.8713598,73.6112993 51.1398611,73.5092169 C51.4113131,73.4101078 51.7083366,73.542914 51.8086558,73.8144729 L55.4339163,83.4954495 C55.535219,83.7660173 55.399493,84.067309 55.1319752,84.1693913 L54.9480566,84.2030884" id="Fill-76" fill="#2FA48E"></path>
                        <path d="M29.5918872,89.7522067 C29.4896009,89.7522067 29.3863312,89.7214829 29.2958472,89.6600353 C29.0607855,89.4945231 29.0017742,89.1684542 29.1650388,88.9315834 C29.3430562,88.6729087 33.5476109,82.5846369 35.7988918,80.6004728 C36.014283,80.4121655 36.3417957,80.4309962 36.5316153,80.6500273 C36.7204515,80.8680673 36.6978305,81.1981006 36.4824393,81.3893812 C34.32656,83.2873204 30.0610269,89.4657815 30.0187355,89.5282202 C29.9174328,89.6739106 29.7561353,89.7522067 29.5918872,89.7522067" id="Fill-77" fill="#2FA48E"></path>
                        <path d="M69.2986198,95.9356233 L68.2708398,102.954529 L68.1252786,104.001122 L63.3709353,136.58621 C62.6962395,141.168024 59.3847224,145.028323 54.8900289,146.011485 C53.9556834,146.220606 52.98003,146.325661 51.9827391,146.325661 L19.5835717,146.325661 C13.9784823,146.273133 9.35888151,141.847912 8.69402093,136.241311 L4.93598502,104.001122 L4.81206131,102.954529 L3.97115037,95.7681289 C3.56593948,92.2844442 6.26472266,89.2299018 9.74245492,89.2299018 L63.5469857,89.2299018 C67.0974986,89.2299018 69.8179192,92.3994107 69.2986198,95.9356233" id="Fill-78" fill="url(#linearGradient-12)"></path>
                        <polygon id="Fill-79" fill="#A46DCA" points="5.74056601 110.913533 4.81206131 102.954529 68.2708398 102.954529"></polygon>
                    </g>
                    <g id="sto" transform="translate(186.465529, 128.952779)">
                        <g id="desk" transform="translate(0.000000, 9.434564)">
                            <ellipse id="Oval-12" fill="#000000" opacity="0.200000003" cx="87.3369196" cy="289.73177" rx="87.3369196" ry="8.49879859"></ellipse>
                            <polygon id="Rectangle" fill="url(#linearGradient-13)" points="157.562919 103.780201 166.144661 103.780201 166.144661 287.32535 157.562919 287.32535"></polygon>
                            <polygon id="Rectangle" fill="#67B9E2" points="157.562919 127.795454 166.144661 127.795454 166.144661 144.949207 157.562919 144.949207"></polygon>
                            <polygon id="Rectangle" fill="url(#linearGradient-13)" points="11.6733139 103.780201 20.2550554 103.780201 20.2550554 287.32535 11.6733139 287.32535"></polygon>
                            <polygon id="Rectangle" fill="#67B9E2" points="11.6733139 127.795454 20.2550554 127.795454 20.2550554 144.949207 11.6733139 144.949207"></polygon>
                            <polygon id="Rectangle" fill="#8DD4F7" points="11.6733139 103.780201 166.144661 103.780201 166.144661 127.795454 11.6733139 127.795454"></polygon>
                            <polygon id="Rectangle" fill="#67B9E2" points="11.6733139 103.780201 166.144661 103.780201 166.144661 112.357077 11.6733139 112.357077"></polygon>
                            <path d="M9.95307328,90.0571993 L167.864901,90.0571993 C171.654404,90.0571993 174.726402,93.1291979 174.726402,96.9187002 L174.726402,96.9187002 C174.726402,100.708203 171.654404,103.780201 167.864901,103.780201 L9.95307328,103.780201 C6.16357097,103.780201 3.09157237,100.708203 3.09157237,96.9187002 L3.09157237,96.9187002 C3.09157237,93.1291979 6.16357097,90.0571993 9.95307328,90.0571993 Z" id="Rectangle" fill="url(#linearGradient-13)"></path>
                            <g id="solja" transform="translate(51.149325, 0.000000)">
                                <path d="M31.7524435,67.7573214 L50.6322748,67.7573214 L50.6322748,82.333632 C50.6322748,86.5992405 47.1743159,90.0571993 42.9087075,90.0571993 L39.4760109,90.0571993 C35.2104024,90.0571993 31.7524435,86.5992405 31.7524435,82.333632 L31.7524435,67.7573214 Z" id="Rectangle-8" fill="#FAFBFD"></path>
                                <path d="M31.7524435,67.7573214 L35.5567092,67.7573214 C35.5567092,73.7431653 35.5567092,78.4531701 35.5567092,81.8873358 C35.5567092,85.3215014 37.1584072,88.0447893 40.3618032,90.0571993 L39.4760109,90.0571993 C35.2104024,90.0571993 31.7524435,86.5992405 31.7524435,82.333632 L31.7524435,67.7573214 Z" id="Rectangle-8" fill="#EFEFEF"></path>
                                <ellipse id="Oval-4" fill="#4C2100" cx="41.1923592" cy="68.1861652" rx="9.43991564" ry="1.28653142"></ellipse>
                                <g id="Path-27">
                                    <use fill="url(#linearGradient-14)" fill-rule="evenodd" xlink:href="#path-15"></use>
                                    <use fill="black" fill-opacity="1" filter="url(#filter-16)" xlink:href="#path-15"></use>
                                </g>
                            </g>
                        </g>
                        <g id="laptop" transform="translate(18.538707, 0.000000)">
                            <rect id="Rectangle-7" fill="#EFE4EF" x="94.3991564" y="49.7458815" width="5.1490449" height="49.7458815"></rect>
                            <path d="M85.817415,37.738255 L96.7235037,44.550696 C98.4806441,45.6482861 99.5482013,47.5738451 99.5482013,49.6456188 L99.5482013,57.4650701 L85.817415,48.8881939 L85.817415,37.738255 Z" id="Rectangle-6" fill="#EFE4EF"></path>
                            <path d="M85.817415,46.3151311 L92.7816321,50.653967 C93.78766,51.280741 94.3991564,52.3821789 94.3991564,53.5674796 L94.3991564,54.235357 L85.817415,48.8881939 L85.817415,46.3151311 Z" id="Rectangle-6" fill="#C2B1C2"></path>
                            <rect id="Rectangle-5" fill="#01A4F3" x="0" y="94.3456374" width="51.490449" height="5.14612568" rx="2.57306284"></rect>
                            <path d="M87.5318171,96.0610126 L106.415541,96.0610126 C108.310292,96.0610126 109.846291,97.5970119 109.846291,99.4917631 L84.1010667,99.4917631 L84.1010667,99.4917631 C84.1010667,97.5970119 85.637066,96.0610126 87.5318171,96.0610126 Z" id="Rectangle-5-Copy" fill="#D7CBD7"></path>
                            <rect id="Rectangle-5" fill="#01A4F3" transform="translate(83.801751, 43.731622) rotate(4.000000) translate(-83.801751, -43.731622) " x="81.2272282" y="0.847241193" width="5.1490449" height="85.7687613" rx="2.57452245"></rect>
                        </g>
                    </g>
                    <g id="guy-docs" transform="translate(430.000000, 211.198182) scale(-1, 1) translate(-430.000000, -211.198182) translate(293.000000, 0.698182)">
                        <ellipse id="Oval-11" fill="#000000" opacity="0.200000003" cx="79.7754776" cy="410.556182" rx="79.197737" ry="10.0440347"></ellipse>
                        <g id="glava" transform="translate(144.770475, 39.324295) rotate(10.000000) translate(-144.770475, -39.324295) translate(115.770475, 4.824295)">
                            <path d="M47.5629231,12.1431739 C48.264235,16.118256 48.7062726,18.6237547 48.889036,19.6596701 C49.002089,20.3004616 48.9259258,23.2437835 49.4806195,25.629115 C49.8226537,27.0999538 53.8259086,32.8552071 54.0685558,34.2305481 C54.3112031,35.6058891 52.2890706,36.1372542 50.835619,36.3933916 C49.8666513,36.5641499 49.8539692,38.3985978 50.7975727,41.8967353 C51.1984724,44.7883151 51.3363632,46.495024 51.2112449,47.016862 C51.0861267,47.5387001 50.0321473,49.0088353 48.049307,51.4272677 L34.9370369,58.155405 C34.4798008,59.7659603 34.1784105,60.900967 34.0328661,61.5604252 C33.9375209,61.9924318 34.504058,62.5866442 34.9172895,63.4625542 C35.5178561,64.7355507 36.0731345,66.3367385 35.96916,66.7071738 C35.6298314,67.9161178 34.0010053,68.4418041 31.0826817,68.2842327 L6.61450894,63.1465995 C7.73956267,60.053613 9.47387739,53.653429 11.8174531,43.9460473 C12.4388675,41.3720717 8.85343106,32.6768114 9.29950443,29.6741468 C9.84761715,25.9846221 9.89302084,25.5347739 11.8022804,23.0690863 C13.4002389,21.0054242 18.72403,20.0672284 27.7736537,20.2544988 L43.3703101,9.34402975 L47.5629231,12.1431739 Z" id="Path-3" fill="#E9AA84"></path>
                            <polygon id="Path-76" fill="#FFFFFF" points="50.6206195 40.3388458 51.0965291 44.3492987 43.4597291 44.0196181 43.4672953 39.1135278"></polygon>
                            <ellipse id="Oval-3" fill="#341930" cx="44.4683731" cy="27.2892668" rx="1.55966564" ry="1.55863844"></ellipse>
                            <path d="M47.7272778,24.1531651 C46.567096,22.5607521 43.6213252,22.4879057 38.8899655,23.934626" id="Path-4" stroke="#150D3E" stroke-width="1.55758609" stroke-linecap="round"></path>
                            <path d="M24.636823,51.8193838 C30.9845252,55.6813489 36.1343669,58.0371561 40.0863479,58.8868053 C44.0383289,59.7364545 47.4550351,59.9073861 50.3364664,59.3996001 C52.4536881,57.1149757 53.5641374,55.1236973 53.6678145,53.4257651 C53.7714916,51.7278329 53.0811462,48.9582234 51.5967783,45.1169365 C49.8309909,45.5936579 48.274861,45.8092839 46.9283886,45.7638146 C44.9086801,45.6956106 42.9474301,41.7306171 43.9536676,42.2766624 C44.6244927,42.6406926 46.9957866,42.5870254 51.0675495,42.115661 C51.1247995,40.1545773 50.8636834,38.674554 50.2842012,37.675591 C49.704719,36.6766279 47.3523347,37.0911816 43.2270483,38.9192519 L37.1357343,42.1625313 C33.5378807,43.0080506 31.3389083,42.8962697 30.5388172,41.8271886 C29.7387261,40.7581076 28.4068018,37.9692069 26.5430443,33.4604866 C26.4836848,29.8272705 26.6817394,27.7453986 27.1372079,27.2148709 C27.5926764,26.6843432 29.7399944,24.9472668 33.5791618,22.0036418 L33.6548476,17.3409933 C40.8782663,15.3329961 45.4338583,14.5301777 47.3216237,14.9325382 C49.2093891,15.3348986 51.3019673,15.8679135 53.5993583,16.531583 C54.5768776,16.8221802 54.8751925,16.3126269 54.4943032,15.002923 C54.1134139,13.6932192 53.5849761,12.8984211 52.9089899,12.6185288 C55.2356231,13.421742 56.7323453,13.7645936 57.3991565,13.6470835 C58.0659677,13.5295733 57.9246743,12.728713 56.9752763,11.2445024 L54.1353828,8.13237303 C55.6427055,6.77258896 56.3829002,5.73826278 56.3559671,5.02939449 C52.1348866,5.23542681 49.771367,5.16881437 49.2654083,4.82955716 C48.5064703,4.32067136 42.9117064,0.493501318 40.5470457,0.443050737 C38.182385,0.392600156 34.6595878,-0.457079174 25.5014539,3.56165811 C25.0325987,2.34768014 24.6611288,1.61720456 24.3870442,1.37023134 C24.1129596,1.12325812 22.6447118,1.91248878 19.982301,3.7379233 C10.2343642,3.52808955 4.8348699,6.29180424 3.78381823,12.0290674 C0.711859776,11.0543658 0.335398871,12.5043606 2.65443551,16.3790515 C0.176107033,16.8158 -0.0998559807,17.8760512 1.82654647,19.5598052 C3.75294892,21.2435592 5.47499114,24.795981 6.99267315,30.2170705 L7.62429576,39.2979076 C9.43577428,43.9021551 10.7554877,46.3580314 11.5834361,46.6655365 C12.4113845,46.9730416 13.1940499,43.6681612 13.9314322,36.7508951 C11.6249346,34.3383955 10.6114,31.9314672 10.8908285,29.5301102 C11.3099712,25.9280747 14.9151183,24.3270982 16.746586,28.1031384 C17.9675644,30.6204986 18.8324605,33.3211739 19.3412743,36.2051646 C20.7376065,43.8624066 21.7094193,48.0272274 22.2567125,48.6996269 C22.8040058,49.3720263 23.5973759,50.4119453 24.636823,51.8193838 Z" id="Path-73" fill="url(#linearGradient-17)"></path>
                        </g>
                        <g id="noge" transform="translate(8.000000, 198.722037)">
                            <g id="cipela" transform="translate(91.742684, 186.335662)">
                                <path d="M1.55966564,4.67591532 L0.779832818,26.4968535 C7.53838391,27.5359458 12.4773251,27.5359458 15.5966564,26.4968535 L15.5966564,23.3795766 L24.9546502,28.0554919 C38.4717523,29.0945842 47.3098576,28.5750381 51.468966,26.4968535 C52.5087431,22.3404843 50.4291889,19.7427536 45.2303034,18.7036613 C40.031418,17.664569 31.7132013,14.027746 20.2756533,7.79319221 L20.2756533,1.55863844 L1.55966564,4.67591532 Z" id="Path-9" fill="#7280B9"></path>
                                <path d="M0.88273735,23.6174242 L0.779832818,26.4968535 C7.53838391,27.5359458 12.4773251,27.5359458 15.5966564,26.4968535 L15.5966564,23.3795766 L24.9546502,28.0554919 C38.4717523,29.0945842 47.3098576,28.5750381 51.468966,26.4968535 C43.1507493,26.4968535 36.3921982,25.9773074 31.1933127,24.9382151 C25.9944273,23.8991228 20.7955418,22.8600305 15.5966564,21.8209382 C14.2096309,22.7754766 13.1698538,23.2950228 12.4773251,23.3795766 C11.7847964,23.4641304 7.91993383,23.543413 0.88273735,23.6174242 Z" id="Path-9" fill="#38457B"></path>
                                <path d="M1.55966564,4.67591532 L1.55966564,7.79319221 C5.43945237,8.8322845 8.55878364,9.35183065 10.9176594,9.35183065 C13.2765353,9.35183065 16.3958665,8.8322845 20.2756533,7.79319221 L20.2756533,0 L1.55966564,3.11727688 L1.55966564,4.67591532 Z" id="Path-10" fill="#FFFFFF"></path>
                            </g>
                            <g id="cipela" transform="translate(30.413667, 187.669801) rotate(-345.000000) translate(-30.413667, -187.669801) translate(4.413667, 169.669801)">
                                <path d="M5.80151226,3.86603858 L0,26.4968535 C7.71373508,30.6532227 13.1302683,32.2118611 16.2495995,31.1727688 L17.156322,28.0554919 L23.7238778,35.4927819 C37.415075,35.4853489 46.3402278,34.4425401 50.4993362,32.3643555 C52.03727,27.4737076 50.2067942,24.5088376 45.0079087,23.4697453 C41.8389369,22.8363683 37.259959,22.9801213 32.4291915,20.2335543 C30.3662636,19.060662 27.1239771,16.2565442 22.7023321,11.8212008 L23.7176276,6.00091901 L5.80151226,3.86603858 Z" id="Path-9" fill="#7280B9"></path>
                                <path d="M0.736996315,23.6219432 L0,26.4968535 C7.71373508,30.6532227 13.1302683,32.2118611 16.2495995,31.1727688 L17.156322,28.0554919 L23.7238778,35.4927819 C37.415075,35.4853489 46.3402278,34.4425401 50.4993362,32.3643555 C50.6423737,31.8755776 50.7398993,31.5145699 50.7919129,31.2813324 L23.7631027,32.1991022 L17.1564062,26.5804215 C16.1267729,27.4316782 15.3900611,27.8173251 14.9462708,27.7373621 C14.5024805,27.6573992 9.76605565,26.2855929 0.736996315,23.6219432 Z" id="Path-9" fill="#38457B"></path>
                                <path d="M6.23866254,1.55863844 L5.0490786,6.23455377 C7.12863278,7.27364606 9.7280755,8.31273835 12.8474068,9.35183065 C15.966738,10.3909229 19.2560329,11.1247207 22.7152912,11.5532238 L23.8935723,5.33147452 L6.23866254,0 L6.23866254,1.55863844 Z" id="Path-10" fill="#FFFFFF"></path>
                            </g>
                            <path d="M108.899006,5.50679827 C104.739057,49.3732493 98.5003944,82.6242027 90.1830179,105.259659 C57.2044774,140.850088 38.6356529,165.399403 34.4765446,178.907603 C24.7919085,175.837422 16.9606162,171.664665 10.9826677,166.389334 C24.1208126,146.789593 33.1395374,130.908961 38.0388422,118.747436 C40.0916101,113.651859 46.5553425,105.90877 57.4300395,95.5181683 C59.5095937,76.0351877 58.9897052,60.0591437 55.8703739,47.5900362 C53.8888543,39.6691778 52.224045,28.2485553 51.19603,19.0104835 C50.3975664,11.8352336 49.9584615,2.48189613 49.9584615,0.399017598 L108.899006,5.50679827 Z" id="Path-8" fill="#5BB9CB"></path>
                            <path d="M52.3012529,7.51657529 C53.7836403,18.4945985 55.7386552,27.1952969 58.1662974,33.6186702 C62.0051882,43.7761095 72.4881035,56.9342704 78.8590313,69.6108681 C83.9543633,79.7493402 87.1731573,92.2142659 90.3893397,104.631356 C91.8314079,100.445081 92.8674354,97.3029435 93.4974221,95.204943 C94.3353895,92.414319 95.5012932,88.22352 96.9951333,82.632546 L60.5493708,8.62407515 L52.3012529,7.51657529 Z" id="Path-11" fill="#479FB0"></path>
                            <path d="M116.697334,2.41632605 C132.703179,41.7280138 139.666325,75.9311499 137.586771,105.025734 C124.040983,149.289598 116.748201,178.17563 115.708423,191.683829 C106.60918,193.132788 97.9004505,193.337721 89.5822338,192.298629 C91.6503896,179.935498 92.9199123,170.979771 93.3908018,165.431447 C96.9153868,123.90252 101.715091,109.74493 105.491057,103.138056 C94.1631586,81.1151393 86.9258899,67.2721633 83.7792513,61.6091277 C80.4556923,55.6276865 62.1464919,40.2859229 56.0315832,22.2594394 C51.2290734,8.10185032 51.7467605,4.75092272 50.8239069,0.60081641 L116.697334,2.41632605 Z" id="Path-8" fill="url(#linearGradient-18)"></path>
                            <path d="M114.409717,9.78538375 C114.114756,23.0215723 109.034066,29.6396665 99.1676463,29.6396665" id="Path-26" stroke="url(#linearGradient-19)" stroke-width="1.7163483" opacity="0.600000024" stroke-linecap="round"></path>
                        </g>
                        <g id="docs" transform="translate(188.238026, 102.922514)">
                            <path d="M53.9279616,67.5495839 L70.3350166,19.7955009 C70.9510289,18.0025466 69.9969288,16.0496934 68.2039745,15.4336812 C68.1596898,15.4184661 68.1150983,15.4041587 68.0702281,15.3907681 L25.8961218,2.80470519 C24.0794672,2.26255906 22.1672815,3.29575227 21.6251354,5.11240682 C21.5922131,5.22272456 21.5648615,5.33462868 21.5431841,5.4476949 L12.1099405,54.6501974 C11.7821605,56.359853 12.786008,58.0441898 14.4457036,58.5693302 L49.6459985,69.7069735 C51.4222726,70.2690003 53.3225934,69.311558 53.9279616,67.5495839 Z" id="Path-24" fill="#FFE01D" transform="translate(41.285161, 36.264092) rotate(-5.000000) translate(-41.285161, -36.264092) "></path>
                            <path d="M56.9594591,78.7605184 L74.0928606,29.4082112 C74.7146224,27.6172426 73.7667931,25.6613382 71.9758246,25.0395763 C71.901527,25.0137828 71.8263649,24.9905502 71.7504714,24.9699198 L24.4565304,12.1138427 C22.6270916,11.6165399 20.740895,12.6964496 20.2435923,14.5258883 C20.2231851,14.6009607 20.2053359,14.676705 20.1900756,14.7529902 L10.0600948,65.3921666 C9.7096488,67.1440253 10.7615301,68.8718033 12.4787066,69.3648814 L52.769227,80.9340895 C54.5215539,81.4372608 56.3615364,80.482819 56.9594591,78.7605184 Z" id="Path-24" fill="url(#linearGradient-20)" transform="translate(42.138277, 46.530462) rotate(-20.000000) translate(-42.138277, -46.530462) "></path>
                            <path d="M53.4877955,81.9354685 L70.8437524,25.7247115 C71.4030641,23.9132683 70.3880109,21.9913917 68.5765676,21.4320801 C68.5662222,21.4288858 68.5558618,21.4257404 68.5454867,21.4226442 L26.0643589,8.74495657 C24.2477043,8.20281044 22.3355186,9.23600366 21.7933725,11.0526582 C21.778989,11.1008553 21.7656665,11.1493626 21.7534148,11.1981452 L7.64693462,67.3656088 C7.20702759,69.117177 8.19953301,70.910054 9.91744403,71.4670919 L49.149095,84.1880728 C50.9524857,84.7728277 52.8884601,83.7849282 53.473215,81.9815375 C53.4781832,81.9662156 53.4830435,81.9508588 53.4877955,81.9354685 Z" id="Path-24" fill="url(#linearGradient-21)"></path>
                            <path d="M59.5285649,31.8471358 L29.0892845,22.4095597" id="Path-28" stroke="#FFFFFF" stroke-width="1.7163483" opacity="0.800000012" stroke-linecap="round"></path>
                            <path d="M56.9540425,38.7086367 L33.0343758,31.199552" id="Path-28" stroke="#FFFFFF" stroke-width="1.7163483" opacity="0.800000012" stroke-linecap="round"></path>
                            <path d="M54.37952,45.5701376 L28.3582977,37.2457547" id="Path-28" stroke="#FFFFFF" stroke-width="1.7163483" opacity="0.800000012" stroke-linecap="round"></path>
                            <path d="M57.8122166,55.0047013 L31.7909943,46.6803184" id="Path-28" stroke="#FFFFFF" stroke-width="1.7163483" opacity="0.800000012" stroke-linecap="round"></path>
                            <path d="M26.8039873,69.0747313 L18.0602079,66.4071335" id="Path-28" stroke="#FFFFFF" stroke-width="2.57452245" opacity="0.800000012" stroke-linecap="round"></path>
                        </g>
                        <g id="torzo" transform="translate(55.221033, 62.511004)">
                            <path d="M78.5392696,78.6995658 C73.0772337,87.25233 68.9097078,96.2702092 69.4763011,105.895952 C70.5160782,123.560521 71.5558553,133.951443 72.5956324,137.06872 C69.5891957,138.054606 67.4943157,138.736991 66.3109923,139.115877 C63.8681394,119.628097 64.3630612,105.023977 67.7957578,95.3035169 C72.9448027,80.7228275 83.3015577,71.2425062 78.5392696,78.6995658 Z" id="Path-5" fill="#D9DCE8"></path>
                            <path d="M69.1241853,20.0644127 L93.0357215,58.3926659 L85.9324172,68.041334 C85.40717,67.4836376 72.7283144,46.8569598 68.8063461,32.7133682 C67.6822166,28.659478 67.788163,24.4431596 69.1241853,20.0644127 Z" id="Path-6" fill="#D9DCE8"></path>
                            <g id="ruka" transform="translate(69.461979, 10.292251)">
                                <path d="M56.79695,78.2998355 L65.5456003,62.5461829 C70.6119503,65.0948828 74.1860489,66.8701735 76.2678962,67.8720547 L78.4248573,81.7638668 C73.8027459,80.4599007 66.5934435,79.3052236 56.79695,78.2998355 Z" id="Path-12" fill="#C49071"></path>
                                <path d="M21.9065367,0.375437616 C24.4421775,1.22009455 28.2369197,5.78229297 34.6854103,20.5069918 C40.1362659,32.9536578 45.5248607,45.6535141 48.3826689,50.6513846 C50.583024,52.1289616 52.2266075,53.1667221 53.3134193,53.764666 C57.8685376,56.2708085 61.1752688,58.7823587 63.4144771,61.1547434 L52.5148056,75.9652508 C49.6366964,75.7442396 46.5155619,72.2836629 42.6016251,69.943979 C41.6233003,69.3591533 39.4209318,68.0549184 35.9945195,66.0312742 L35.9945197,66.0312739 C33.3965745,64.4969236 31.088563,62.5178448 29.1758439,60.1843804 C15.7167122,43.7646126 6.68705458,30.6099637 2.086871,20.7204336 C-5.30517019,4.82893427 17.2275398,-1.18320083 21.9065367,0.375437616 Z" id="Path-6" fill="#D9DCE8"></path>
                                <polygon id="Path-25" fill="#D9DCE8" points="60.2281151 58.289342 58.9465997 57.3593701 49.003022 74.443417 50.3493935 75.3358014"></polygon>
                                <path d="M60.4151884,56.8267674 L49.4463389,75.8434731 C52.9429628,78.9938036 55.0427038,80.5689689 55.745562,80.5689689 C56.7998492,80.5689689 66.7993357,64.3741602 67.4121334,62.2704008 C67.8206652,60.8678946 65.4883502,59.0533501 60.4151884,56.8267674 Z" id="Path-22" fill="#D9DCE8"></path>
                            </g>
                            <path d="M62.5378553,0.462920007 C63.3489644,0.373911812 65.8942557,0.462920007 67.3886517,0.813663808 C73.4635391,2.23947681 82.9441979,8.97483436 89.7519544,9.78915483 C90.4220373,9.86930786 90.4220373,8.1111089 89.7519544,4.51455797 C95.9906169,12.8272963 99.6298367,23.7377654 100.669614,37.2459652 C102.229279,57.508265 67.9166355,79.399098 69.4763011,105.895952 C70.5160782,123.560521 71.5558553,133.951443 72.5956324,137.06872 C66.3894936,139.414101 61.9121499,140.799124 59.1636013,141.22379 C45.9572279,143.264243 31.06613,142.524776 15.1194084,141.22379 C-1.95099037,139.87535 0.877436448,137.147451 1.2283987,131.72789 C1.53325043,127.020368 1.92734379,121.526999 2.41067879,115.247782 C3.97034442,94.9854824 23.7361301,42.2403744 26.5119599,37.2459652 C29.2877896,32.2515561 44.791397,2.41035236 62.5378553,0.462920007 Z" id="Path-5" fill="url(#linearGradient-22)"></path>
                            <path d="M87.6029617,65.7063981 L83.1988178,71.8295937 C71.9575794,58.3201322 65.1819358,48.2718336 62.8718869,41.6846978 C59.4068137,31.8039941 60.7063356,20.0340746 61.77281,18.3102658 C62.483793,17.1610599 71.0938436,32.9597706 87.6029617,65.7063981 Z" id="Path-74" fill="#D9DCE8"></path>
                            <g id="ruka" transform="translate(60.022063, 6.003813)">
                                <path d="M119.342349,89.9567432 C120.816111,84.3587698 122.565972,81.345402 124.591931,80.9166398 C126.617891,80.4878776 128.868563,79.1345134 131.343947,76.8565472 C133.918185,75.9081593 134.937017,76.2512046 134.400443,77.885683 C133.863869,79.5201614 132.096504,81.6474679 129.098347,84.2676025 C136.184634,81.1072559 139.935896,79.7971887 140.352133,80.3374006 C140.768371,80.8776126 140.768371,82.1876799 140.352133,84.2676025 C142.706511,85.8228855 143.085704,87.5546163 141.489712,89.4627948 C139.095725,92.3250626 141.90634,93.3303674 139.430599,95.5576359 C139.150222,97.4129753 138.244079,98.8026501 136.712169,99.7266603 C134.414305,101.112676 122.889648,101.775526 120.935768,100.601111 C119.63318,99.8181677 119.102041,96.2700451 119.342349,89.9567432 Z" id="Path-23" fill="#000000" opacity="0.200000003"></path>
                                <path d="M121.058698,89.9567432 C122.53246,84.3587698 124.28232,81.345402 126.30828,80.9166398 C128.334239,80.4878776 130.584911,79.1345134 133.060296,76.8565472 C135.634533,75.9081593 136.653365,76.2512046 136.116791,77.885683 C135.580218,79.5201614 133.812852,81.6474679 130.814696,84.2676025 C137.900982,81.1072559 141.652244,79.7971887 142.068482,80.3374006 C142.48472,80.8776126 142.48472,82.1876799 142.068482,84.2676025 C144.422859,85.8228855 144.802052,87.5546163 143.206061,89.4627948 C140.812074,92.3250626 143.622689,93.3303674 141.146947,95.5576359 C140.86657,97.4129753 139.960427,98.8026501 138.428518,99.7266603 C136.130653,101.112676 124.605997,101.775526 122.652116,100.601111 C121.349529,99.8181677 120.818389,96.2700451 121.058698,89.9567432 Z" id="Path-23" fill="#E9AA84"></path>
                                <path d="M66.2368656,86.8767116 L74.985516,71.123059 C83.4691069,75.4257674 89.903201,78.5124643 94.2877984,80.3831496 C98.6723958,82.253835 108.44696,85.5095873 123.61149,90.1504064 L123.61149,100.574163 C107.388377,98.0325982 96.9657653,96.1098326 92.3436539,94.8058665 C87.7215426,93.5019004 79.0192798,90.8588488 66.2368656,86.8767116 Z" id="Path-12" fill="#E9AA84"></path>
                                <path d="M5.25089305,5.87533413 C11.149948,1.69231852 15.6591412,0.120356867 18.7784724,1.15944916 C23.4574693,2.7180876 51.583922,48.3177917 57.8225845,59.2282608 C60.0229396,60.7058378 61.6665231,61.7435982 62.7533349,62.3415421 C67.3084532,64.8476847 70.6151845,67.3592348 72.8543928,69.7316195 L61.9547213,84.542127 C59.0766121,84.3211157 55.9554776,80.860539 52.0415408,78.5208551 C50.8918812,77.8336085 48.0519001,76.1529064 43.5215975,73.4787488 L43.5215976,73.4787485 C42.1961999,72.6963897 40.9436271,71.7967565 39.7789266,70.7906565 C20.2336842,53.9069435 8.06892987,40.3224505 3.28466378,30.0371776 C-1.64336369,19.4428448 -0.987953928,11.3888969 5.25089305,5.87533413 Z" id="Path-6" fill="url(#linearGradient-23)"></path>
                                <polygon id="Path-25" fill="#D9DCE8" points="69.6680308 66.8662181 68.3865153 65.9362462 58.4429376 83.0202932 59.7893092 83.9126776"></polygon>
                                <path d="M69.855104,65.4036435 L58.8862545,84.4203492 C62.3828784,87.5706797 64.4826195,89.145845 65.1854776,89.145845 C66.2397649,89.145845 76.2392514,72.9510363 76.8520491,70.847277 C77.2605809,69.4447707 74.9282658,67.6302262 69.855104,65.4036435 Z" id="Path-22" fill="#FFFFFF"></path>
                            </g>
                            <path d="M90.491245,9.46932596 C90.3115088,10.028663 89.9623208,10.2656757 89.4436812,10.1803644 C88.2531336,9.98453033 83.4019751,8.41013047 81.8501721,7.70289773 C80.8156367,7.23140923 78.4994651,6.11597701 74.9016571,4.35660106 C71.5258942,2.59539915 69.3823082,1.63827098 68.4708992,1.48521656" id="Path-75" stroke="url(#linearGradient-24)" stroke-width="0.85817415" stroke-linecap="round"></path>
                        </g>
                    </g>
                    <g id="import" transform="translate(92.388982, 2.000000)">
                        <path d="M96.955512,18.0192248 C97.6877148,17.287179 99.3961881,19.9713468 101.836864,19.9713468 C104.27754,19.9713468 105.986014,17.287179 106.718217,18.0192248 C107.450419,18.7512705 104.765676,20.4593773 104.765676,22.8995298 C104.765676,25.3396823 107.450419,27.0477891 106.718217,27.7798349 C105.986014,28.5118806 104.27754,25.8277128 101.836864,25.8277128 C99.3961881,25.8277128 97.691085,28.5152501 96.955512,27.7798349 C96.2199389,27.0444196 98.9080529,25.3396823 98.9080529,22.8995298 C98.9080529,20.4593773 96.2233091,18.7512705 96.955512,18.0192248 Z" id="Rectangle-Copy" fill="#FFC858" transform="translate(101.836394, 22.900000) rotate(-70.000000) translate(-101.836394, -22.900000) "></path>
                        <path d="M400.672404,28.8607546 L403.816707,34.3269913 C404.245115,35.0717602 403.988654,36.0228078 403.243885,36.4512157 C403.0079,36.5869595 402.740425,36.6584003 402.468184,36.6584003 L396.179578,36.6584003 C395.320385,36.6584003 394.62387,35.9618861 394.62387,35.1026923 C394.62387,34.8304511 394.695311,34.5629762 394.831055,34.3269913 L397.975358,28.8607546 C398.403766,28.1159857 399.354813,27.8595244 400.099582,28.2879323 C400.337758,28.4249367 400.5354,28.6225783 400.672404,28.8607546 Z" id="Triangle" stroke="#7DD4FD" stroke-width="1.66944908" transform="translate(399.324012, 32.369443) rotate(-315.000000) translate(-399.324012, -32.369443) "></path>
                        <g id="Group-5" transform="translate(109.348915, 79.649091)">
                            <path d="M17.7485134,22.9332604 L22.6761013,9.02235791 C22.8586093,8.50712588 22.5888832,7.94149582 22.0736511,7.75898781 C22.0487498,7.75016715 22.0235054,7.74234703 21.9979784,7.73554623 L8.36761206,4.10420094 C7.8394336,3.96348584 7.29718824,4.27758695 7.15647314,4.8057654 C7.15145996,4.82458253 7.14700324,4.84354351 7.1431088,4.86262359 L4.22979625,19.1358496 C4.12608259,19.6439751 4.4321907,20.1459921 4.93140107,20.2864808 L16.547492,23.5555026 C17.0492246,23.6967011 17.5744794,23.4245696 17.7485134,22.9332604 Z" id="Path-24-Copy-2" fill="#48C4AD" filter="url(#filter-25)" transform="translate(13.471409, 13.831654) scale(-1, 1) rotate(-40.000000) translate(-13.471409, -13.831654) "></path>
                            <polyline id="Shape-Copy-2" stroke="#FFFFFF" stroke-width="2.33722871" stroke-linecap="round" stroke-linejoin="round" transform="translate(14.017116, 14.321580) rotate(18.000000) translate(-14.017116, -14.321580) " points="11.236632 14.3845939 13.0499912 16.1805019 16.7976004 12.4626573"></polyline>
                        </g>
                        <ellipse id="Oval-Copy-11" stroke="#FA759E" stroke-width="1.66944908" cx="247.421774" cy="3.26121382" rx="3.68220841" ry="3.68502927"></ellipse>
                        <ellipse id="Oval-Copy-12" fill="#7DD4FD" cx="4.1736227" cy="75.4763636" rx="4.1736227" ry="4.17272727"></ellipse>
                        <g id="Group-6" transform="translate(201.821369, 52.296364)">
                            <ellipse id="Oval-Copy-11" stroke="#01A4F3" stroke-width="1.25208681" stroke-linecap="round" cx="8.81426238" cy="8.77001351" rx="9.24545402" ry="9.02694156"></ellipse>
                            <ellipse id="Oval-Copy-11" fill="#01A4F3" cx="8.81426238" cy="8.77001351" rx="3.23227898" ry="3.15033681"></ellipse>
                        </g>
                        <g id="image-2" transform="translate(445.500000, 113.500000) rotate(10.000000) translate(-445.500000, -113.500000) translate(429.000000, 102.000000)">
                            <path d="M1.9375305,0.939452172 L29.9375305,0.064452172 C31.041561,0.0299512172 31.9645232,0.896976266 31.9990242,2.00100682 C31.9996747,2.02182364 32,2.04264935 32,2.06347632 L32,20 C32,21.1045695 31.1045695,22 30,22 L2,22 C0.8954305,22 -1.15327924e-13,21.1045695 -1.15463195e-13,20 L-1.13686838e-13,2.93847632 C-1.1381913e-13,1.85822847 0.857809716,0.973193446 1.9375305,0.939452172 Z" id="Rectangle" fill="url(#linearGradient-12)"></path>
                            <ellipse id="Oval-5" fill="#FFFFFF" opacity="0.600000024" cx="5.85565655" cy="5.23208795" rx="2.24463818" ry="2.23208795"></ellipse>
                            <path d="M0.0631795877,15.2551186 L8.23832499,10.4642865 L16.2706382,14.6253967 L24.1038468,7.6399238 L32.0283834,12.8996858 L32.0275024,19.999883 C32.0275024,21.1041085 31.1326087,21.9993965 30.0283832,21.9998828 L2.06317978,22.0139609 C0.958610389,22.0144474 0.0627856098,21.1194114 0.0622991348,20.014842 C0.0622990055,20.0145483 0.0622989408,20.0142547 0.0622989408,20.0139611 L0.0631795877,15.2551186 Z" id="Path-36" fill="#0E134B" opacity="0.200000003"></path>
                        </g>
                        <path d="M311.408023,191.24325 L314.410139,183.827908 L315.57072,184.297771 L312.568605,191.713114 L311.408023,191.24325 Z" id="Path-29" stroke="#01A4F3" stroke-width="1.25208681" stroke-linecap="round"></path>
                    </g>
                </g>
            </g>
        </g>
    </g>
</svg>